{
  "accessors": [
    {
      "bufferView": 0,
      "componentType": 5125,
      "count": 7428,
      "type": "SCALAR"
    },
    {
      "bufferView": 1,
      "componentType": 5126,
      "count": 2088,
      "max": [
        0.12599999687564561,
        0.12599999687564561,
        0.014199999641277827
      ],
      "min": [
        -0.1259999968756456,
        -0.12599999687564561,
        -0.014199999641277827
      ],
      "type": "VEC3"
    },
    {
      "bufferView": 2,
      "componentType": 5126,
      "count": 2088,
      "max": [
        1.0,
        1.0,
        1.0
      ],
      "min": [
        -1.0,
        -1.0,
        -1.0
      ],
      "type": "VEC3"
    },
    {
      "bufferView": 3,
      "componentType": 5126,
      "count": 2088,
      "max": [
        1.0,
        1.0
      ],
      "min": [
        0.0,
        0.0
      ],
      "type": "VEC2"
    }
  ],
  "asset": {
    "generator": "Adobe Illustrator",
    "version": "2.0"
  },
  "bufferViews": [
    {
      "buffer": 0,
      "byteLength": 29712,
      "target": 34963
    },
    {
      "buffer": 0,
      "byteLength": 25056,
      "byteOffset": 29712,
      "target": 34962
    },
    {
      "buffer": 0,
      "byteLength": 25056,
      "byteOffset": 54768,
      "target": 34962
    },
    {
      "buffer": 0,
      "byteLength": 16704,
      "byteOffset": 79824,
      "target": 34962
    }
  ],
  "buffers": [
    {
      "byteLength": 96528,
      "uri": "data:application/octet-stream;base64,"
    }
  ],
  "materials": [
    {
      "doubleSided": true,
      "pbrMetallicRoughness": {
        "baseColorFactor": [
          0.9648436903953552,
          0.87109375,
          0.1171875074505806,
          1.0
        ],
        "metallicFactor": 0.0,
        "roughnessFactor": 0.4000000059604645
      }
    }
  ],
  "meshes": [
    {
      "primitives": [
        {
          "attributes": {
            "NORMAL": 2,
            "POSITION": 1,
            "TEXCOORD_0": 3
          },
          "indices": 0,
          "material": 0,
          "mode": 4
        }
      ]
    }
  ],
  "nodes": [
    {
      "mesh": 0
    }
  ],
  "scenes": [
    {
      "nodes": [
        0
      ]
    }
  ]
}
